<?xml version="1.0" encoding="UTF-8" standalone="no"?>
<!DOCTYPE svg PUBLIC "-//W3C//DTD SVG 1.1//EN" "http://www.w3.org/Graphics/SVG/1.1/DTD/svg11.dtd">
<svg xmlns="http://www.w3.org/2000/svg" version="1.1" viewBox="0.00 0.00 811.00 702.00">
<g stroke-width="2.00" fill="none" stroke-linecap="butt">
<path stroke="#808080" vector-effect="non-scaling-stroke" d="
  M 784.61 30.64
  A 1.49 1.49 0.0 0 0 783.67 28.00
  L 27.09 28.00
  A 1.49 1.49 0.0 0 0 26.15 30.64
  L 404.43 342.52
  A 1.49 1.49 0.0 0 0 406.33 342.52
  L 784.61 30.64"
/>
<path stroke="#808080" vector-effect="non-scaling-stroke" d="
  M 405.05 376.50
  L 20.58 58.86
  A 0.68 0.68 0.0 0 0 19.55 59.06
  C 19.31 59.51 19.00 60.15 19.00 60.70
  Q 19.00 367.12 19.00 673.49
  A 1.51 1.51 0.0 0 0 20.51 675.00
  L 790.75 675.00
  A 1.25 1.25 0.0 0 0 792.00 673.75
  L 792.00 59.51
  A 0.75 0.73 16.7 0 0 791.66 58.89
  Q 790.97 58.46 790.03 59.24
  Q 598.02 217.81 405.94 376.50
  A 0.70 0.69 44.6 0 1 405.05 376.50"
/>
<path stroke="#808080" vector-effect="non-scaling-stroke" d="
  M 222.87 492.14
  C 223.15 487.71 231.51 486.80 232.17 482.96
  C 232.77 479.52 235.11 460.82 229.51 460.73
  Q 220.13 460.59 210.75 460.68
  C 208.18 460.70 207.74 463.20 207.03 465.08
  C 205.90 468.08 201.07 471.45 198.22 468.78
  C 195.55 466.27 194.23 462.82 190.00 461.92
  C 186.93 461.26 174.26 459.72 171.77 462.79
  Q 169.31 465.83 166.52 468.87
  A 3.42 3.41 -46.1 0 1 161.58 468.97
  C 155.14 462.49 148.26 458.43 139.09 461.94
  Q 137.30 462.63 135.73 464.54
  C 124.64 478.03 126.13 461.36 119.00 461.03
  Q 112.45 460.72 105.88 460.35
  C 103.02 460.19 100.49 460.65 99.06 463.07
  C 97.54 465.64 94.77 470.16 91.69 470.26
  Q 89.72 470.32 88.82 468.42
  Q 85.76 461.93 79.60 460.40
  C 74.81 459.20 65.75 458.37 61.53 461.41
  C 56.62 464.96 58.81 475.79 59.89 480.73
  Q 60.53 483.69 63.02 485.50
  C 66.10 487.75 72.02 489.13 69.68 494.80
  Q 69.49 495.26 69.07 495.53
  C 65.55 497.78 60.59 498.73 59.68 503.49
  C 57.67 514.05 58.35 519.31 67.76 524.73
  C 74.95 528.87 66.86 533.51 63.78 536.05
  C 56.03 542.44 57.05 555.26 66.69 559.14
  C 67.89 559.62 69.56 561.20 70.03 562.34
  C 71.41 565.72 69.21 567.37 66.61 569.47
  C 64.83 570.90 61.22 571.99 60.48 574.25
  C 56.95 585.01 58.57 589.76 67.25 596.76
  C 74.60 602.69 66.22 606.22 61.93 608.73
  C 58.26 610.87 59.11 625.35 59.64 629.16
  C 59.98 631.61 61.10 632.48 63.24 633.31
  Q 75.07 637.87 84.32 630.56
  C 86.77 628.62 90.54 621.20 94.03 623.12
  C 95.93 624.16 97.85 628.24 99.35 629.88
  C 108.55 639.91 119.27 633.84 125.99 625.24
  C 128.55 621.97 131.28 623.43 133.37 626.27
  C 137.88 632.43 144.28 637.16 152.15 633.66
  Q 156.19 631.86 157.89 629.38
  C 160.09 626.18 164.36 618.91 167.76 625.36
  C 169.86 629.34 171.70 633.04 176.41 634.08
  C 181.89 635.30 188.79 633.98 193.21 629.94
  C 195.02 628.29 196.37 625.40 197.89 623.88
  C 202.43 619.36 205.48 627.22 207.85 629.64
  C 212.39 634.31 217.96 635.91 224.36 634.72
  C 228.21 634.00 233.50 632.51 234.03 628.25
  C 235.03 620.07 235.66 609.62 226.24 605.25
  Q 224.65 604.51 223.38 601.65
  Q 223.18 601.22 223.30 600.77
  C 224.84 594.98 231.67 595.76 233.27 589.51
  C 235.95 578.98 231.98 572.78 224.30 566.35
  A 2.56 2.56 0.0 0 1 224.03 562.68
  Q 226.35 560.09 228.82 557.05
  C 234.94 549.53 233.90 540.44 227.36 533.12
  Q 226.78 532.48 225.61 530.15
  A 0.92 0.91 47.9 0 1 225.65 529.24
  C 232.59 518.10 237.60 503.64 224.50 494.53
  Q 223.97 494.17 223.14 493.05
  Q 222.84 492.65 222.87 492.14"
/>
<path stroke="#808080" vector-effect="non-scaling-stroke" d="
  M 213.08 557.30
  Q 214.82 553.55 218.23 549.72
  C 220.17 547.55 220.15 545.26 218.36 543.14
  Q 212.23 535.88 212.77 526.78
  C 213.16 520.02 217.52 515.66 222.26 511.74
  A 1.48 1.48 0.0 0 0 222.23 509.44
  Q 212.88 502.08 210.43 491.23
  C 209.53 487.24 218.09 479.78 222.03 476.98
  Q 225.26 474.69 222.90 471.51
  L 222.44 470.88
  A 2.91 2.90 54.3 0 0 218.45 470.22
  C 212.01 474.67 208.86 484.71 198.74 481.19
  Q 193.83 479.48 185.53 473.97
  Q 181.12 471.04 177.90 474.36
  C 169.57 482.96 160.07 482.02 151.05 475.59
  C 146.42 472.29 143.81 474.11 139.55 477.32
  Q 136.23 479.83 130.44 481.16
  C 123.62 482.73 118.74 477.34 113.47 473.82
  C 109.19 470.97 106.89 473.71 103.34 476.87
  Q 91.17 487.67 79.98 476.08
  Q 78.80 474.85 76.83 472.76
  Q 75.01 470.84 72.56 471.86
  L 72.02 472.09
  A 1.48 1.47 -29.3 0 0 71.39 474.32
  Q 75.42 479.88 78.66 484.10
  C 86.35 494.14 79.45 500.59 73.28 508.11
  C 69.13 513.17 75.84 516.39 78.01 518.75
  C 86.81 528.30 81.09 537.53 73.12 544.56
  C 71.77 545.75 71.51 547.43 72.97 548.54
  C 77.15 551.72 81.30 555.52 82.07 560.75
  C 83.08 567.62 77.78 575.19 73.03 579.85
  C 71.72 581.13 70.59 582.97 72.06 584.42
  C 76.95 589.28 82.57 594.90 81.78 602.49
  C 81.16 608.45 76.39 612.74 71.94 617.39
  Q 70.03 619.39 71.97 621.35
  L 72.32 621.70
  A 2.17 2.17 0.0 0 0 75.39 621.73
  C 81.49 615.75 86.73 608.99 96.50 612.07
  C 101.37 613.61 105.39 617.24 109.27 620.45
  C 112.92 623.48 115.82 617.87 118.24 615.81
  C 126.87 608.46 136.71 611.79 144.22 619.05
  Q 146.84 621.58 149.27 619.31
  C 153.89 615.00 158.90 610.56 165.24 611.58
  C 170.45 612.41 176.51 616.88 180.38 620.60
  A 2.63 2.62 44.8 0 0 184.02 620.60
  C 188.21 616.57 196.37 610.73 202.58 611.70
  C 207.89 612.52 211.92 616.23 215.79 620.12
  Q 217.96 622.32 220.84 621.21
  L 222.19 620.69
  Q 225.07 619.58 222.72 617.58
  Q 215.41 611.34 213.21 607.78
  C 207.42 598.42 215.89 590.29 221.78 584.04
  A 1.97 1.96 41.9 0 0 221.62 581.20
  C 214.86 575.47 208.88 566.34 213.08 557.30"
/>
<path stroke="#808080" vector-effect="non-scaling-stroke" d="
  M 207.2587 496.0254
  A 9.44 9.44 0.0 0 0 197.8352 486.5689
  L 96.0553 486.3913
  A 9.44 9.44 0.0 0 0 86.5989 495.8148
  L 86.4213 597.5346
  A 9.44 9.44 0.0 0 0 95.8448 606.9911
  L 197.6247 607.1687
  A 9.44 9.44 0.0 0 0 207.0811 597.7452
  L 207.2587 496.0254"
/>
<path stroke="#808080" vector-effect="non-scaling-stroke" d="
  M 195.49 503.91
  A 6.16 6.16 0.0 0 0 189.33 497.75
  L 104.03 497.75
  A 6.16 6.16 0.0 0 0 97.87 503.91
  L 97.87 589.59
  A 6.16 6.16 0.0 0 0 104.03 595.75
  L 189.33 595.75
  A 6.16 6.16 0.0 0 0 195.49 589.59
  L 195.49 503.91"
/>
<path stroke="#808080" vector-effect="non-scaling-stroke" d="
  M 187.0678 514.5880
  A 8.29 8.29 0.0 0 0 178.7489 506.3269
  L 113.8293 506.5536
  A 8.29 8.29 0.0 0 0 105.5683 514.8724
  L 105.7922 579.0120
  A 8.29 8.29 0.0 0 0 114.1111 587.2731
  L 179.0307 587.0464
  A 8.29 8.29 0.0 0 0 187.2917 578.7276
  L 187.0678 514.5880"
/>
<path stroke="#808080" vector-effect="non-scaling-stroke" d="
  M 176.3356 521.0287
  A 3.40 3.40 0.0 0 0 172.9296 517.6346
  L 120.8497 517.7255
  A 3.40 3.40 0.0 0 0 117.4557 521.1314
  L 117.5444 571.9913
  A 3.40 3.40 0.0 0 0 120.9504 575.3854
  L 173.0303 575.2945
  A 3.40 3.40 0.0 0 0 176.4243 571.8886
  L 176.3356 521.0287"
/>
</g>
<path fill="#000000" d="
  M 0.00 0.00
  L 811.00 0.00
  L 811.00 702.00
  L 0.00 702.00
  L 0.00 0.00
  Z
  M 784.61 30.64
  A 1.49 1.49 0.0 0 0 783.67 28.00
  L 27.09 28.00
  A 1.49 1.49 0.0 0 0 26.15 30.64
  L 404.43 342.52
  A 1.49 1.49 0.0 0 0 406.33 342.52
  L 784.61 30.64
  Z
  M 405.05 376.50
  L 20.58 58.86
  A 0.68 0.68 0.0 0 0 19.55 59.06
  C 19.31 59.51 19.00 60.15 19.00 60.70
  Q 19.00 367.12 19.00 673.49
  A 1.51 1.51 0.0 0 0 20.51 675.00
  L 790.75 675.00
  A 1.25 1.25 0.0 0 0 792.00 673.75
  L 792.00 59.51
  A 0.75 0.73 16.7 0 0 791.66 58.89
  Q 790.97 58.46 790.03 59.24
  Q 598.02 217.81 405.94 376.50
  A 0.70 0.69 44.6 0 1 405.05 376.50
  Z"
/>
<path fill="#ffffff" d="
  M 784.61 30.64
  L 406.33 342.52
  A 1.49 1.49 0.0 0 1 404.43 342.52
  L 26.15 30.64
  A 1.49 1.49 0.0 0 1 27.09 28.00
  L 783.67 28.00
  A 1.49 1.49 0.0 0 1 784.61 30.64
  Z"
/>
<path fill="#ffffff" d="
  M 405.05 376.50
  A 0.70 0.69 44.6 0 0 405.94 376.50
  Q 598.02 217.81 790.03 59.24
  Q 790.97 58.46 791.66 58.89
  A 0.75 0.73 16.7 0 1 792.00 59.51
  L 792.00 673.75
  A 1.25 1.25 0.0 0 1 790.75 675.00
  L 20.51 675.00
  A 1.51 1.51 0.0 0 1 19.00 673.49
  Q 19.00 367.12 19.00 60.70
  C 19.00 60.15 19.31 59.51 19.55 59.06
  A 0.68 0.68 0.0 0 1 20.58 58.86
  L 405.05 376.50
  Z
  M 222.87 492.14
  C 223.15 487.71 231.51 486.80 232.17 482.96
  C 232.77 479.52 235.11 460.82 229.51 460.73
  Q 220.13 460.59 210.75 460.68
  C 208.18 460.70 207.74 463.20 207.03 465.08
  C 205.90 468.08 201.07 471.45 198.22 468.78
  C 195.55 466.27 194.23 462.82 190.00 461.92
  C 186.93 461.26 174.26 459.72 171.77 462.79
  Q 169.31 465.83 166.52 468.87
  A 3.42 3.41 -46.1 0 1 161.58 468.97
  C 155.14 462.49 148.26 458.43 139.09 461.94
  Q 137.30 462.63 135.73 464.54
  C 124.64 478.03 126.13 461.36 119.00 461.03
  Q 112.45 460.72 105.88 460.35
  C 103.02 460.19 100.49 460.65 99.06 463.07
  C 97.54 465.64 94.77 470.16 91.69 470.26
  Q 89.72 470.32 88.82 468.42
  Q 85.76 461.93 79.60 460.40
  C 74.81 459.20 65.75 458.37 61.53 461.41
  C 56.62 464.96 58.81 475.79 59.89 480.73
  Q 60.53 483.69 63.02 485.50
  C 66.10 487.75 72.02 489.13 69.68 494.80
  Q 69.49 495.26 69.07 495.53
  C 65.55 497.78 60.59 498.73 59.68 503.49
  C 57.67 514.05 58.35 519.31 67.76 524.73
  C 74.95 528.87 66.86 533.51 63.78 536.05
  C 56.03 542.44 57.05 555.26 66.69 559.14
  C 67.89 559.62 69.56 561.20 70.03 562.34
  C 71.41 565.72 69.21 567.37 66.61 569.47
  C 64.83 570.90 61.22 571.99 60.48 574.25
  C 56.95 585.01 58.57 589.76 67.25 596.76
  C 74.60 602.69 66.22 606.22 61.93 608.73
  C 58.26 610.87 59.11 625.35 59.64 629.16
  C 59.98 631.61 61.10 632.48 63.24 633.31
  Q 75.07 637.87 84.32 630.56
  C 86.77 628.62 90.54 621.20 94.03 623.12
  C 95.93 624.16 97.85 628.24 99.35 629.88
  C 108.55 639.91 119.27 633.84 125.99 625.24
  C 128.55 621.97 131.28 623.43 133.37 626.27
  C 137.88 632.43 144.28 637.16 152.15 633.66
  Q 156.19 631.86 157.89 629.38
  C 160.09 626.18 164.36 618.91 167.76 625.36
  C 169.86 629.34 171.70 633.04 176.41 634.08
  C 181.89 635.30 188.79 633.98 193.21 629.94
  C 195.02 628.29 196.37 625.40 197.89 623.88
  C 202.43 619.36 205.48 627.22 207.85 629.64
  C 212.39 634.31 217.96 635.91 224.36 634.72
  C 228.21 634.00 233.50 632.51 234.03 628.25
  C 235.03 620.07 235.66 609.62 226.24 605.25
  Q 224.65 604.51 223.38 601.65
  Q 223.18 601.22 223.30 600.77
  C 224.84 594.98 231.67 595.76 233.27 589.51
  C 235.95 578.98 231.98 572.78 224.30 566.35
  A 2.56 2.56 0.0 0 1 224.03 562.68
  Q 226.35 560.09 228.82 557.05
  C 234.94 549.53 233.90 540.44 227.36 533.12
  Q 226.78 532.48 225.61 530.15
  A 0.92 0.91 47.9 0 1 225.65 529.24
  C 232.59 518.10 237.60 503.64 224.50 494.53
  Q 223.97 494.17 223.14 493.05
  Q 222.84 492.65 222.87 492.14
  Z"
/>
<path fill="#000000" d="
  M 223.14 493.05
  Q 223.97 494.17 224.50 494.53
  C 237.60 503.64 232.59 518.10 225.65 529.24
  A 0.92 0.91 47.9 0 0 225.61 530.15
  Q 226.78 532.48 227.36 533.12
  C 233.90 540.44 234.94 549.53 228.82 557.05
  Q 226.35 560.09 224.03 562.68
  A 2.56 2.56 0.0 0 0 224.30 566.35
  C 231.98 572.78 235.95 578.98 233.27 589.51
  C 231.67 595.76 224.84 594.98 223.30 600.77
  Q 223.18 601.22 223.38 601.65
  Q 224.65 604.51 226.24 605.25
  C 235.66 609.62 235.03 620.07 234.03 628.25
  C 233.50 632.51 228.21 634.00 224.36 634.72
  C 217.96 635.91 212.39 634.31 207.85 629.64
  C 205.48 627.22 202.43 619.36 197.89 623.88
  C 196.37 625.40 195.02 628.29 193.21 629.94
  C 188.79 633.98 181.89 635.30 176.41 634.08
  C 171.70 633.04 169.86 629.34 167.76 625.36
  C 164.36 618.91 160.09 626.18 157.89 629.38
  Q 156.19 631.86 152.15 633.66
  C 144.28 637.16 137.88 632.43 133.37 626.27
  C 131.28 623.43 128.55 621.97 125.99 625.24
  C 119.27 633.84 108.55 639.91 99.35 629.88
  C 97.85 628.24 95.93 624.16 94.03 623.12
  C 90.54 621.20 86.77 628.62 84.32 630.56
  Q 75.07 637.87 63.24 633.31
  C 61.10 632.48 59.98 631.61 59.64 629.16
  C 59.11 625.35 58.26 610.87 61.93 608.73
  C 66.22 606.22 74.60 602.69 67.25 596.76
  C 58.57 589.76 56.95 585.01 60.48 574.25
  C 61.22 571.99 64.83 570.90 66.61 569.47
  C 69.21 567.37 71.41 565.72 70.03 562.34
  C 69.56 561.20 67.89 559.62 66.69 559.14
  C 57.05 555.26 56.03 542.44 63.78 536.05
  C 66.86 533.51 74.95 528.87 67.76 524.73
  C 58.35 519.31 57.67 514.05 59.68 503.49
  C 60.59 498.73 65.55 497.78 69.07 495.53
  Q 69.49 495.26 69.68 494.80
  C 72.02 489.13 66.10 487.75 63.02 485.50
  Q 60.53 483.69 59.89 480.73
  C 58.81 475.79 56.62 464.96 61.53 461.41
  C 65.75 458.37 74.81 459.20 79.60 460.40
  Q 85.76 461.93 88.82 468.42
  Q 89.72 470.32 91.69 470.26
  C 94.77 470.16 97.54 465.64 99.06 463.07
  C 100.49 460.65 103.02 460.19 105.88 460.35
  Q 112.45 460.72 119.00 461.03
  C 126.13 461.36 124.64 478.03 135.73 464.54
  Q 137.30 462.63 139.09 461.94
  C 148.26 458.43 155.14 462.49 161.58 468.97
  A 3.42 3.41 -46.1 0 0 166.52 468.87
  Q 169.31 465.83 171.77 462.79
  C 174.26 459.72 186.93 461.26 190.00 461.92
  C 194.23 462.82 195.55 466.27 198.22 468.78
  C 201.07 471.45 205.90 468.08 207.03 465.08
  C 207.74 463.20 208.18 460.70 210.75 460.68
  Q 220.13 460.59 229.51 460.73
  C 235.11 460.82 232.77 479.52 232.17 482.96
  C 231.51 486.80 223.15 487.71 222.87 492.14
  Q 222.84 492.65 223.14 493.05
  Z
  M 213.08 557.30
  Q 214.82 553.55 218.23 549.72
  C 220.17 547.55 220.15 545.26 218.36 543.14
  Q 212.23 535.88 212.77 526.78
  C 213.16 520.02 217.52 515.66 222.26 511.74
  A 1.48 1.48 0.0 0 0 222.23 509.44
  Q 212.88 502.08 210.43 491.23
  C 209.53 487.24 218.09 479.78 222.03 476.98
  Q 225.26 474.69 222.90 471.51
  L 222.44 470.88
  A 2.91 2.90 54.3 0 0 218.45 470.22
  C 212.01 474.67 208.86 484.71 198.74 481.19
  Q 193.83 479.48 185.53 473.97
  Q 181.12 471.04 177.90 474.36
  C 169.57 482.96 160.07 482.02 151.05 475.59
  C 146.42 472.29 143.81 474.11 139.55 477.32
  Q 136.23 479.83 130.44 481.16
  C 123.62 482.73 118.74 477.34 113.47 473.82
  C 109.19 470.97 106.89 473.71 103.34 476.87
  Q 91.17 487.67 79.98 476.08
  Q 78.80 474.85 76.83 472.76
  Q 75.01 470.84 72.56 471.86
  L 72.02 472.09
  A 1.48 1.47 -29.3 0 0 71.39 474.32
  Q 75.42 479.88 78.66 484.10
  C 86.35 494.14 79.45 500.59 73.28 508.11
  C 69.13 513.17 75.84 516.39 78.01 518.75
  C 86.81 528.30 81.09 537.53 73.12 544.56
  C 71.77 545.75 71.51 547.43 72.97 548.54
  C 77.15 551.72 81.30 555.52 82.07 560.75
  C 83.08 567.62 77.78 575.19 73.03 579.85
  C 71.72 581.13 70.59 582.97 72.06 584.42
  C 76.95 589.28 82.57 594.90 81.78 602.49
  C 81.16 608.45 76.39 612.74 71.94 617.39
  Q 70.03 619.39 71.97 621.35
  L 72.32 621.70
  A 2.17 2.17 0.0 0 0 75.39 621.73
  C 81.49 615.75 86.73 608.99 96.50 612.07
  C 101.37 613.61 105.39 617.24 109.27 620.45
  C 112.92 623.48 115.82 617.87 118.24 615.81
  C 126.87 608.46 136.71 611.79 144.22 619.05
  Q 146.84 621.58 149.27 619.31
  C 153.89 615.00 158.90 610.56 165.24 611.58
  C 170.45 612.41 176.51 616.88 180.38 620.60
  A 2.63 2.62 44.8 0 0 184.02 620.60
  C 188.21 616.57 196.37 610.73 202.58 611.70
  C 207.89 612.52 211.92 616.23 215.79 620.12
  Q 217.96 622.32 220.84 621.21
  L 222.19 620.69
  Q 225.07 619.58 222.72 617.58
  Q 215.41 611.34 213.21 607.78
  C 207.42 598.42 215.89 590.29 221.78 584.04
  A 1.97 1.96 41.9 0 0 221.62 581.20
  C 214.86 575.47 208.88 566.34 213.08 557.30
  Z"
/>
<path fill="#ffffff" d="
  M 213.08 557.30
  C 208.88 566.34 214.86 575.47 221.62 581.20
  A 1.97 1.96 41.9 0 1 221.78 584.04
  C 215.89 590.29 207.42 598.42 213.21 607.78
  Q 215.41 611.34 222.72 617.58
  Q 225.07 619.58 222.19 620.69
  L 220.84 621.21
  Q 217.96 622.32 215.79 620.12
  C 211.92 616.23 207.89 612.52 202.58 611.70
  C 196.37 610.73 188.21 616.57 184.02 620.60
  A 2.63 2.62 44.8 0 1 180.38 620.60
  C 176.51 616.88 170.45 612.41 165.24 611.58
  C 158.90 610.56 153.89 615.00 149.27 619.31
  Q 146.84 621.58 144.22 619.05
  C 136.71 611.79 126.87 608.46 118.24 615.81
  C 115.82 617.87 112.92 623.48 109.27 620.45
  C 105.39 617.24 101.37 613.61 96.50 612.07
  C 86.73 608.99 81.49 615.75 75.39 621.73
  A 2.17 2.17 0.0 0 1 72.32 621.70
  L 71.97 621.35
  Q 70.03 619.39 71.94 617.39
  C 76.39 612.74 81.16 608.45 81.78 602.49
  C 82.57 594.90 76.95 589.28 72.06 584.42
  C 70.59 582.97 71.72 581.13 73.03 579.85
  C 77.78 575.19 83.08 567.62 82.07 560.75
  C 81.30 555.52 77.15 551.72 72.97 548.54
  C 71.51 547.43 71.77 545.75 73.12 544.56
  C 81.09 537.53 86.81 528.30 78.01 518.75
  C 75.84 516.39 69.13 513.17 73.28 508.11
  C 79.45 500.59 86.35 494.14 78.66 484.10
  Q 75.42 479.88 71.39 474.32
  A 1.48 1.47 -29.3 0 1 72.02 472.09
  L 72.56 471.86
  Q 75.01 470.84 76.83 472.76
  Q 78.80 474.85 79.98 476.08
  Q 91.17 487.67 103.34 476.87
  C 106.89 473.71 109.19 470.97 113.47 473.82
  C 118.74 477.34 123.62 482.73 130.44 481.16
  Q 136.23 479.83 139.55 477.32
  C 143.81 474.11 146.42 472.29 151.05 475.59
  C 160.07 482.02 169.57 482.96 177.90 474.36
  Q 181.12 471.04 185.53 473.97
  Q 193.83 479.48 198.74 481.19
  C 208.86 484.71 212.01 474.67 218.45 470.22
  A 2.91 2.90 54.3 0 1 222.44 470.88
  L 222.90 471.51
  Q 225.26 474.69 222.03 476.98
  C 218.09 479.78 209.53 487.24 210.43 491.23
  Q 212.88 502.08 222.23 509.44
  A 1.48 1.48 0.0 0 1 222.26 511.74
  C 217.52 515.66 213.16 520.02 212.77 526.78
  Q 212.23 535.88 218.36 543.14
  C 220.15 545.26 220.17 547.55 218.23 549.72
  Q 214.82 553.55 213.08 557.30
  Z
  M 207.2587 496.0254
  A 9.44 9.44 0.0 0 0 197.8352 486.5689
  L 96.0553 486.3913
  A 9.44 9.44 0.0 0 0 86.5989 495.8148
  L 86.4213 597.5346
  A 9.44 9.44 0.0 0 0 95.8448 606.9911
  L 197.6247 607.1687
  A 9.44 9.44 0.0 0 0 207.0811 597.7452
  L 207.2587 496.0254
  Z"
/>
<path fill="#000000" d="
  M 207.0811 597.7452
  A 9.44 9.44 0.0 0 1 197.6247 607.1687
  L 95.8448 606.9911
  A 9.44 9.44 0.0 0 1 86.4213 597.5346
  L 86.5989 495.8148
  A 9.44 9.44 0.0 0 1 96.0553 486.3913
  L 197.8352 486.5689
  A 9.44 9.44 0.0 0 1 207.2587 496.0254
  L 207.0811 597.7452
  Z
  M 195.49 503.91
  A 6.16 6.16 0.0 0 0 189.33 497.75
  L 104.03 497.75
  A 6.16 6.16 0.0 0 0 97.87 503.91
  L 97.87 589.59
  A 6.16 6.16 0.0 0 0 104.03 595.75
  L 189.33 595.75
  A 6.16 6.16 0.0 0 0 195.49 589.59
  L 195.49 503.91
  Z"
/>
<path fill="#ffffff" d="
  M 195.49 589.59
  A 6.16 6.16 0.0 0 1 189.33 595.75
  L 104.03 595.75
  A 6.16 6.16 0.0 0 1 97.87 589.59
  L 97.87 503.91
  A 6.16 6.16 0.0 0 1 104.03 497.75
  L 189.33 497.75
  A 6.16 6.16 0.0 0 1 195.49 503.91
  L 195.49 589.59
  Z
  M 187.0678 514.5880
  A 8.29 8.29 0.0 0 0 178.7489 506.3269
  L 113.8293 506.5536
  A 8.29 8.29 0.0 0 0 105.5683 514.8724
  L 105.7922 579.0120
  A 8.29 8.29 0.0 0 0 114.1111 587.2731
  L 179.0307 587.0464
  A 8.29 8.29 0.0 0 0 187.2917 578.7276
  L 187.0678 514.5880
  Z"
/>
<path fill="#000000" d="
  M 187.2917 578.7276
  A 8.29 8.29 0.0 0 1 179.0307 587.0464
  L 114.1111 587.2731
  A 8.29 8.29 0.0 0 1 105.7922 579.0120
  L 105.5683 514.8724
  A 8.29 8.29 0.0 0 1 113.8293 506.5536
  L 178.7489 506.3269
  A 8.29 8.29 0.0 0 1 187.0678 514.5880
  L 187.2917 578.7276
  Z
  M 176.3356 521.0287
  A 3.40 3.40 0.0 0 0 172.9296 517.6346
  L 120.8497 517.7255
  A 3.40 3.40 0.0 0 0 117.4557 521.1314
  L 117.5444 571.9913
  A 3.40 3.40 0.0 0 0 120.9504 575.3854
  L 173.0303 575.2945
  A 3.40 3.40 0.0 0 0 176.4243 571.8886
  L 176.3356 521.0287
  Z"
/>
<rect fill="#ffffff" x="-29.44" y="-28.83" transform="translate(146.94,546.51) rotate(-0.1)" width="58.88" height="57.66" rx="3.40"/>
</svg>
