<?xml version="1.0" encoding="UTF-8" standalone="no"?>
<!DOCTYPE svg PUBLIC "-//W3C//DTD SVG 1.1//EN" "http://www.w3.org/Graphics/SVG/1.1/DTD/svg11.dtd">
<svg xmlns="http://www.w3.org/2000/svg" version="1.1" viewBox="0.00 0.00 1041.00 240.00">
<path fill="#000000" d="
  M 1005.70 204.77
  A 0.37 0.37 0.0 0 1 1005.33 205.14
  L 803.97 205.14
  A 0.37 0.37 0.0 0 1 803.60 204.77
  L 803.60 30.41
  A 0.37 0.37 0.0 0 1 803.97 30.04
  L 1005.33 30.04
  A 0.37 0.37 0.0 0 1 1005.70 30.41
  L 1005.70 204.77
  Z
  M 998.57 38.06
  A 0.39 0.39 0.0 0 0 998.32 37.37
  L 810.78 37.37
  A 0.39 0.39 0.0 0 0 810.53 38.06
  L 904.29 115.32
  A 0.39 0.39 0.0 0 0 904.79 115.32
  L 998.57 38.06
  Z
  M 1000.40 45.34
  A 0.31 0.31 0.0 0 0 999.89 45.10
  L 904.74 123.72
  A 0.31 0.31 0.0 0 1 904.34 123.72
  L 809.23 45.11
  A 0.31 0.31 0.0 0 0 808.72 45.35
  L 808.73 197.50
  A 0.31 0.31 0.0 0 0 809.04 197.81
  L 1000.06 197.80
  A 0.31 0.31 0.0 0 0 1000.37 197.49
  L 1000.40 45.34
  Z"
/>
<path fill="#000000" d="
  M 232.16 109.49
  C 241.70 86.10 277.32 85.98 286.12 109.89
  Q 288.24 115.67 288.31 122.75
  Q 288.53 145.63 288.57 168.38
  A 0.81 0.80 0.0 0 1 287.76 169.18
  L 276.73 169.12
  A 0.84 0.84 0.0 0 1 275.89 168.27
  Q 275.98 147.31 275.87 126.50
  Q 275.83 119.77 273.74 114.24
  C 269.98 104.33 257.56 101.11 248.00 103.49
  C 237.82 106.03 231.98 115.13 231.88 125.75
  Q 231.67 146.74 231.68 168.01
  A 1.14 1.14 0.0 0 1 230.53 169.15
  L 219.94 169.12
  A 0.93 0.93 0.0 0 1 219.01 168.19
  L 219.01 67.76
  Q 219.01 67.02 219.74 67.02
  L 230.82 66.93
  A 0.89 0.88 -0.0 0 1 231.72 67.82
  L 231.64 109.39
  A 0.27 0.27 0.0 0 0 232.16 109.49
  Z"
/>
<path fill="#000000" d="
  M 407.94 107.70
  C 411.14 97.51 422.76 91.91 433.48 92.17
  Q 452.69 92.63 459.54 110.26
  A 0.30 0.30 0.0 0 0 460.09 110.29
  C 463.24 104.40 465.42 100.24 471.39 96.67
  Q 484.25 88.98 497.82 93.67
  C 510.40 98.02 516.27 108.97 516.46 121.78
  Q 516.82 145.16 516.76 168.41
  A 0.76 0.75 -89.6 0 1 516.00 169.17
  L 505.44 169.12
  Q 504.27 169.11 504.27 167.94
  Q 504.23 146.82 504.21 125.75
  C 504.20 111.15 495.07 100.92 479.74 103.49
  C 466.99 105.63 461.72 116.36 461.79 128.25
  Q 461.91 148.01 461.83 167.85
  Q 461.82 169.14 460.52 169.14
  L 449.97 169.13
  A 0.80 0.79 0.0 0 1 449.17 168.34
  Q 449.26 148.12 449.15 128.00
  C 449.11 118.94 447.62 110.15 439.21 105.66
  Q 432.46 102.06 424.00 103.57
  C 410.35 106.01 406.76 117.77 406.72 130.63
  Q 406.68 149.41 406.72 168.24
  A 0.92 0.91 -0.3 0 1 405.80 169.16
  L 395.02 169.14
  A 0.84 0.83 90.0 0 1 394.19 168.30
  L 394.15 94.54
  Q 394.15 93.22 395.47 93.22
  L 405.87 93.23
  A 0.89 0.89 0.0 0 1 406.76 94.12
  L 406.67 107.50
  Q 406.64 111.82 407.94 107.70
  Z"
/>
<path fill="#000000" d="
  M 635.07 106.49
  Q 635.05 108.31 636.00 106.76
  Q 645.05 92.09 662.64 92.13
  A 0.57 0.57 0.0 0 1 663.21 92.70
  L 663.20 105.01
  Q 663.20 105.79 662.42 105.76
  C 646.83 105.19 635.00 111.37 635.07 128.49
  Q 635.15 148.23 635.20 168.22
  A 0.91 0.91 0.0 0 1 634.29 169.13
  L 623.59 169.15
  Q 622.52 169.15 622.52 168.09
  L 622.51 94.00
  A 0.74 0.74 0.0 0 1 623.25 93.26
  L 634.23 93.25
  Q 635.21 93.25 635.20 94.23
  L 635.07 106.49
  Z"
/>
<path fill="#000000" d="
  M 48.19 135.04
  C 48.42 140.25 49.96 146.09 53.02 150.29
  C 63.10 164.12 89.56 163.41 94.80 145.31
  Q 95.07 144.38 95.42 143.49
  Q 95.62 142.98 96.17 142.98
  L 108.06 142.90
  A 0.62 0.62 0.0 0 1 108.69 143.59
  Q 108.49 145.26 107.88 146.97
  C 101.69 164.40 86.22 171.57 68.64 169.71
  C 52.91 168.04 41.05 158.56 37.24 142.74
  C 32.83 124.47 39.01 102.98 57.48 95.25
  Q 67.11 91.23 79.23 92.87
  C 100.48 95.74 111.08 112.24 109.02 132.69
  A 1.48 1.48 0.0 0 1 107.55 134.01
  L 49.19 134.00
  A 1.00 1.00 0.0 0 0 48.19 135.04
  Z
  M 49.71 128.04
  L 95.95 127.80
  A 1.14 1.14 0.0 0 0 97.08 126.65
  L 97.08 125.82
  A 23.51 23.49 -0.3 0 0 73.44 102.46
  L 71.94 102.46
  A 23.51 23.49 -0.3 0 0 48.56 126.08
  L 48.56 126.91
  A 1.14 1.14 0.0 0 0 49.71 128.04
  Z"
/>
<path fill="#000000" d="
  M 139.74 153.09
  Q 138.50 149.13 138.51 153.25
  L 138.52 204.73
  Q 138.52 205.23 138.02 205.23
  L 126.30 205.19
  Q 125.92 205.18 125.92 204.80
  L 125.94 94.04
  A 0.77 0.76 -0.0 0 1 126.71 93.28
  L 137.56 93.26
  A 0.92 0.92 0.0 0 1 138.48 94.17
  Q 138.54 102.04 138.65 110.00
  Q 138.65 110.44 138.81 110.85
  A 0.16 0.16 0.0 0 0 139.11 110.86
  C 145.80 95.01 161.76 89.50 177.74 93.77
  C 190.15 97.08 198.41 107.29 201.29 119.50
  C 205.36 136.77 200.64 157.58 183.73 166.31
  C 175.54 170.53 163.03 171.37 154.45 167.57
  C 148.89 165.11 141.67 159.29 139.74 153.09
  Z
  M 152.94 105.92
  C 130.81 116.21 134.05 155.28 159.99 158.64
  C 176.41 160.77 187.71 151.78 189.51 136.03
  C 190.60 126.54 188.74 115.63 181.21 109.23
  C 173.65 102.81 161.96 101.72 152.94 105.92
  Z"
/>
<path fill="#000000" d="
  M 316.56 134.69
  C 316.43 143.32 320.10 151.49 327.48 156.10
  C 335.21 160.93 345.97 161.21 353.92 156.63
  C 359.83 153.22 361.75 149.17 363.58 143.58
  Q 363.78 143.00 364.39 142.99
  L 376.53 142.89
  A 0.51 0.50 6.0 0 1 377.03 143.49
  C 373.50 159.99 359.79 169.77 343.00 169.82
  C 336.34 169.84 330.55 169.29 324.61 166.53
  C 304.14 157.01 299.01 130.24 308.72 111.10
  C 316.57 95.64 334.43 89.60 351.14 93.43
  C 370.01 97.77 379.76 114.09 377.08 133.47
  A 0.62 0.61 -86.3 0 1 376.47 134.01
  L 317.26 133.99
  A 0.71 0.70 -89.6 0 0 316.56 134.69
  Z
  M 317.97 128.05
  L 364.11 127.81
  A 1.13 1.13 0.0 0 0 365.23 126.67
  L 365.22 125.42
  A 23.54 23.08 -0.3 0 0 341.56 102.47
  L 340.24 102.47
  A 23.54 23.08 -0.3 0 0 316.82 125.68
  L 316.83 126.93
  A 1.13 1.13 0.0 0 0 317.97 128.05
  Z"
/>
<path fill="#000000" d="
  M 544.83 134.65
  C 545.14 151.13 558.02 162.53 574.49 159.50
  Q 588.25 156.97 592.05 143.64
  A 0.94 0.93 7.8 0 1 592.95 142.96
  L 604.07 142.92
  A 1.40 1.40 0.0 0 1 605.40 144.74
  C 600.47 160.18 589.75 168.41 574.03 169.84
  C 555.67 171.52 539.33 162.31 534.26 144.25
  C 527.75 121.00 538.50 96.27 564.23 92.68
  C 589.17 89.20 609.50 107.57 605.53 133.13
  A 1.03 1.03 0.0 0 1 604.51 134.01
  L 545.48 133.99
  A 0.65 0.65 0.0 0 0 544.83 134.65
  Z
  M 546.06 128.05
  L 592.86 127.81
  A 0.90 0.90 0.0 0 0 593.75 126.90
  L 593.75 125.90
  A 23.56 23.54 89.7 0 0 570.08 102.47
  L 568.56 102.47
  A 23.56 23.54 89.7 0 0 545.15 126.16
  L 545.15 127.16
  A 0.90 0.90 0.0 0 0 546.06 128.05
  Z"
/>
<path fill="#000000" d="
  M 685.01 133.99
  A 0.95 0.95 0.0 0 0 684.07 135.05
  C 685.49 147.17 689.85 156.10 702.76 159.12
  C 715.11 162.00 728.26 156.61 731.31 143.49
  A 0.67 0.66 5.4 0 1 731.95 142.97
  L 743.81 142.88
  A 0.85 0.85 0.0 0 1 744.64 143.92
  C 739.89 164.35 721.61 172.00 702.26 169.33
  C 684.13 166.83 673.10 152.74 672.09 135.25
  C 671.40 123.47 673.67 112.37 681.58 103.60
  C 691.12 93.03 706.55 90.45 719.99 93.75
  C 737.87 98.14 747.75 115.18 744.87 133.06
  Q 744.72 134.01 743.76 134.01
  L 685.01 133.99
  Z
  M 685.58 128.00
  L 731.98 127.84
  A 1.10 1.10 0.0 0 0 733.08 126.74
  L 733.08 125.96
  A 23.56 23.54 89.8 0 0 709.46 102.48
  L 707.94 102.48
  A 23.56 23.54 89.8 0 0 684.48 126.12
  L 684.48 126.90
  A 1.10 1.10 0.0 0 0 685.58 128.00
  Z"
/>
<path fill="#000000" d="
  M 845.39 146.63
  L 846.59 145.19
  Q 846.93 144.79 847.45 144.79
  C 849.60 144.76 851.79 144.27 853.00 146.51
  A 0.83 0.82 -17.9 0 0 853.83 146.93
  Q 855.25 146.75 855.58 145.24
  A 0.77 0.77 0.0 0 1 856.34 144.64
  L 860.89 144.70
  Q 861.61 144.70 861.72 145.41
  Q 862.11 147.69 861.66 149.97
  A 1.37 1.32 -11.8 0 1 861.09 150.81
  L 859.57 151.81
  A 0.68 0.68 0.0 0 0 859.60 152.96
  C 862.78 154.83 861.92 159.19 860.06 161.50
  Q 859.77 161.87 860.08 162.22
  Q 863.70 166.20 859.68 169.76
  A 0.81 0.81 0.0 0 0 859.79 171.05
  Q 862.85 172.98 861.82 176.91
  Q 861.69 177.41 861.26 177.68
  L 859.92 178.52
  A 1.15 1.15 0.0 0 0 860.12 180.57
  C 862.53 181.49 862.15 183.86 862.08 186.07
  Q 862.04 187.17 861.02 187.48
  C 858.54 188.23 855.94 188.03 854.78 185.51
  A 1.11 1.10 -47.2 0 0 852.74 185.59
  Q 852.27 186.86 850.99 187.35
  Q 846.88 188.90 845.61 185.42
  A 0.88 0.88 0.0 0 0 844.06 185.22
  C 843.37 186.22 842.93 187.23 841.74 187.60
  Q 838.48 188.60 836.99 185.58
  A 1.04 1.03 -43.0 0 0 835.17 185.52
  C 833.34 188.67 829.27 188.83 827.75 185.32
  A 0.88 0.87 -42.4 0 0 826.18 185.25
  Q 824.03 189.11 819.41 187.38
  Q 818.91 187.19 818.81 186.66
  Q 818.38 184.29 818.92 181.92
  Q 819.04 181.38 819.57 181.19
  Q 820.46 180.89 821.13 180.25
  A 1.07 1.07 0.0 0 0 820.87 178.51
  Q 817.59 176.93 818.90 173.01
  Q 819.05 172.54 819.48 172.28
  L 820.89 171.42
  A 1.29 1.29 0.0 0 0 820.80 169.17
  L 819.54 168.53
  Q 819.11 168.32 818.94 167.87
  Q 817.51 164.25 820.76 162.64
  Q 821.20 162.42 821.39 161.98
  Q 821.82 160.94 820.75 160.50
  C 818.12 159.42 818.20 157.14 818.98 154.80
  A 1.17 1.15 88.5 0 1 819.65 154.08
  L 820.74 153.64
  A 1.15 1.13 -6.4 0 0 821.43 152.79
  Q 821.49 152.45 821.37 152.12
  Q 821.19 151.66 820.73 151.49
  C 818.03 150.51 818.66 148.46 818.59 146.12
  C 818.51 143.69 822.80 144.32 824.55 144.78
  A 0.99 0.94 79.4 0 1 825.12 145.19
  L 826.17 146.78
  A 0.72 0.71 -30.2 0 0 827.09 147.02
  Q 828.17 146.47 828.59 145.29
  A 1.18 1.17 11.1 0 1 829.77 144.51
  L 833.44 144.74
  Q 834.05 144.78 834.39 145.28
  L 835.36 146.67
  A 0.78 0.77 59.0 0 0 836.36 146.92
  Q 837.22 146.48 837.66 145.60
  Q 837.92 145.08 838.48 144.92
  Q 841.90 143.95 843.96 146.60
  A 0.92 0.92 0.0 0 0 845.39 146.63
  Z
  M 849.76 184.25
  C 852.72 181.34 855.08 181.16 857.61 184.32
  A 0.93 0.92 -32.3 0 0 858.74 184.57
  L 859.07 184.41
  A 0.56 0.56 0.0 0 0 859.14 183.45
  Q 853.65 179.70 858.74 175.60
  Q 859.49 175.00 858.76 174.39
  Q 854.37 170.72 858.32 166.55
  Q 858.66 166.19 858.44 165.75
  C 857.90 164.63 857.03 163.79 856.80 162.64
  Q 856.14 159.32 859.04 157.43
  Q 859.55 157.09 859.06 156.73
  Q 856.91 155.10 856.16 152.49
  Q 856.02 152.01 856.27 151.57
  Q 857.29 149.76 859.09 148.68
  Q 859.53 148.42 859.52 147.91
  Q 859.50 147.23 858.80 146.94
  A 0.96 0.96 0.0 0 0 857.61 147.36
  C 855.03 151.92 852.46 149.28 849.51 147.71
  A 0.89 0.88 45.3 0 0 848.69 147.70
  Q 848.28 147.92 848.02 148.19
  C 846.05 150.28 843.59 150.03 841.37 148.26
  A 1.64 1.64 0.0 0 0 839.29 148.31
  Q 835.68 151.43 832.35 148.02
  A 1.34 1.34 0.0 0 0 830.43 148.04
  Q 829.20 149.34 827.53 150.01
  Q 827.08 150.20 826.61 150.08
  Q 824.29 149.49 822.91 147.55
  A 0.62 0.62 0.0 0 0 822.07 147.38
  L 821.82 147.54
  Q 821.47 147.76 821.71 148.11
  C 823.96 151.38 826.36 152.00 822.31 156.22
  Q 821.64 156.91 822.01 157.81
  Q 822.12 158.08 822.76 158.52
  C 825.44 160.38 824.78 163.40 822.38 165.25
  Q 821.38 166.03 822.43 166.74
  C 825.96 169.14 824.17 172.08 821.93 174.45
  A 0.68 0.68 0.0 0 0 821.99 175.44
  C 824.91 177.89 825.38 180.99 821.95 183.36
  A 0.77 0.77 0.0 0 0 822.16 184.73
  Q 822.67 184.88 823.15 184.20
  Q 825.45 180.95 828.82 182.50
  C 829.74 182.93 830.36 184.01 831.44 184.50
  A 0.68 0.67 29.5 0 0 832.28 184.27
  Q 834.39 181.15 837.82 182.47
  C 838.73 182.82 839.26 183.73 840.19 184.21
  Q 840.63 184.43 840.97 184.07
  Q 844.82 179.91 848.61 184.21
  Q 849.16 184.83 849.76 184.25
  Z"
/>
<path fill="#000000" d="
  M 855.3377 178.8061
  A 2.17 2.17 0.0 0 1 853.1639 180.9723
  L 827.6239 180.9277
  A 2.17 2.17 0.0 0 1 825.4577 178.7539
  L 825.5023 153.2139
  A 2.17 2.17 0.0 0 1 827.6761 151.0477
  L 853.2161 151.0923
  A 2.17 2.17 0.0 0 1 855.3823 153.2661
  L 855.3377 178.8061
  Z
  M 852.45 155.22
  A 1.33 1.33 0.0 0 0 851.12 153.89
  L 829.60 153.89
  A 1.33 1.33 0.0 0 0 828.27 155.22
  L 828.27 176.84
  A 1.33 1.33 0.0 0 0 829.60 178.17
  L 851.12 178.17
  A 1.33 1.33 0.0 0 0 852.45 176.84
  L 852.45 155.22
  Z"
/>
<path fill="#000000" d="
  M 850.4241 174.1124
  A 1.89 1.89 0.0 0 1 848.5374 176.0057
  L 832.1575 176.0343
  A 1.89 1.89 0.0 0 1 830.2642 174.1476
  L 830.2359 157.9276
  A 1.89 1.89 0.0 0 1 832.1226 156.0343
  L 848.5025 156.0057
  A 1.89 1.89 0.0 0 1 850.3958 157.8924
  L 850.4241 174.1124
  Z
  M 847.7189 159.5573
  A 0.79 0.79 0.0 0 0 846.9275 158.7687
  L 833.9275 158.7914
  A 0.79 0.79 0.0 0 0 833.1389 159.5827
  L 833.1611 172.3427
  A 0.79 0.79 0.0 0 0 833.9525 173.1313
  L 846.9525 173.1086
  A 0.79 0.79 0.0 0 0 847.7411 172.3173
  L 847.7189 159.5573
  Z"
/>
</svg>
